<svg data-v-423bf9ae="" xmlns="http://www.w3.org/2000/svg" viewBox="0 0 75.53260666567397 60" class="icon"><!----><!----><!----><!----><g data-v-423bf9ae="" id="9c99e2aa-7a01-49d3-a221-398f3dd5ed79" transform="matrix(0.9634139924920714,0,0,0.9634139924920714,-1.1705658620774528,-8.290176964378347)" stroke="none" fill="white"><path d="M74.98 10.4c.569-.563.998-1.26 1.594-1.795-2.557 7.334-2.817 11.09 1.648 14.484.456.396.992.697 1.394 1.153a1.865 1.865 0 0 1-1.36.228c-5.851-.195-10.291 3.781-9.4 9.38-.268-.188-.496-.436-.757-.63-5.02-2.106-12.306.346-13.996 5.634-.207.502-.616.877-.991 1.26-.1-.356-.208-.717-.396-1.032-.85-1.508-1.976-2.828-3.142-4.094-.864-.817-1.728-1.668-2.8-2.218-1.18-.556-2.573-.79-3.826-.341-1.67.646-1.497 1.802-.89 2.767.569 1.105.609 2.385.93 3.564.536 1.213 1.535 2.15 2.62 2.868.69.495 1.407.937 2.15 1.34.738.415 1.367.991 2.004 1.547.623.543 1.058 1.266 1.393 2.017 2.806 5.478 3.166 9.526-1.098 13.714-.57.57-1.226 1.025-1.863 1.5.516.765 1.22 1.481 1.34 2.433.604 10.184-12.49 8.023-5.28-1.488.503-.71 1.126-1.326 1.71-1.963-.57-.804-.899-1.855-.577-2.82.255.362.308.817.429 1.233.167.402.475.73.817.998 5.42-3.55 5.552-11.681-1.172-13.781-1.387-.235-2.8-.376-4.134-.858.16.51.395 1.005.784 1.38.228.228.107.59-.04.824-.268.543-.798.858-1.213 1.266-.382.422-.717.905-.898 1.44-.107.35-.107.724-.22 1.073-.168.308-.477.496-.758.69.02.636.248 1.253.241 1.89-.455-.128-.837-.41-1.192-.711.013.368.067.744.04 1.119-.429-.282-.79-.65-1.166-.985-.134-.134-.328-.027-.489-.034-.342-.455-.63-.991-.502-1.587.107-.335.288-.71.643-.838.315-.154.71-.094.971-.355.77-.69 1.434-1.48 2.104-2.264.234-.329.59-.644.55-1.092-.061-1.072-.55-2.064-1.113-2.955h-.214c-.456.891-.583 2.023-.1 2.928.153.24-.128.475-.262.656-.523.53-1.3.59-1.903.985-.489.288-.965.643-1.266 1.132-.168.242-.255.536-.462.75-.268.222-.643.229-.938.41-.188.556-.12 1.165-.335 1.715-.06 0-.174.006-.235.006-.261-.322-.482-.677-.71-1.032-.107.349-.154.71-.301 1.045-.402-.268-.503-.81-.744-1.212-.067-.195-.288-.195-.449-.255-.288-.67-.295-1.628.402-2.05.422-.415 1.052.04 1.54-.194 1.187-.503 2.346-1.092 3.411-1.823.348-.214.295-.69.375-1.038.054-.777.134-1.581-.14-2.325-.382-.965-.938-1.869-1.113-2.9-.127-.771.161-1.495.436-2.192.04-.57.033-1.152.06-1.728-.094-.851.074-1.735-.254-2.546-.309-.804-.617-1.648-1.153-2.332-.415-.515-1.159-.395-1.681-.12-2.198 1.079-4.114 2.814-5.213 5.025-.516.938-.55 2.07-1.105 2.988-1.262-3.978-7.1-6.275-10.693-5.079a5.38 5.38 0 0 1-.241.79c-1.756-4.08-6.715-9.148-12.636-5.513 1.503-4.765 1.816-8.429-1.54-13.091-.316-.596-.242-1.293-.39-1.936.028-.014.081-.054.108-.067.703.73 1.36 1.527 2.224 2.077 3.802 1.89 12.695 6.362 19.208 2.11.422-.094.871 0 1.246.2-.899.816-.258 1.852.108 2.795 1.021 1.946 1.973 3.594 3.604 4.763 3.754.288 7.82-.76 11.29.32 1.488-2.495 2.858-4.736 2.96-7.602-.248.04-.442.187-.63.348-.254.234-.616.174-.937.174.053-.254.107-.509.154-.764-.643-.381-1.032-1.098-1.749-1.373-.134-.067-.1-.248-.134-.369a12.69 12.69 0 0 0-1.722-.301c.128-.502.556-.871 1.019-1.059.341.014.65.215.984.262.577.328 1.146-.282 1.722.02.898.321 1.95.342 2.767-.188.074.094.773-.106.847-.012-.174.194-1 .655-1.188.836a.773.773 0 0 1 .013.128c.677.087 2.144-.075 2.627.494-.43.108-1.521.202-1.95.276.475.925 2.009 2.525 1.841 3.59-.094-.013-1.325-.588-1.412-.602-.114.804.24 2.157.173 2.968-.1 0-.776-.563-.877-.563-.027.65-.382 1.2-.603 1.79-.14.622-.188 1.265-.281 1.895 2.876-.19 6.713.448 9.178-.281 1.213-1.233 2.057-2.754 2.948-4.221.691-1.555 2.048-2.85.871-4.16.348-.034.704-.094 1.045.013 7.5-.01 13.318-2.16 18.31-8.522M48.523 64.118c-.147-.683-.542-1.26-1.011-1.762-10.496 7.604 2.42 9.514 1.011 1.762z"></path></g><!----></svg>